<svg width="40" height="40" viewBox="0 0 40 40" fill="none" xmlns="http://www.w3.org/2000/svg">
<path d="M13.2337 38.4895C12.6745 38.4895 12.1154 38.3776 11.6122 38.1258C8.34137 36.6433 5.57374 34.2937 3.53296 31.3566C1.46422 28.3636 0.262113 24.8951 0.0384657 21.2867C-0.185182 17.6783 0.569628 14.0699 2.21903 10.8532C3.86843 7.66435 6.32855 4.97904 9.34779 3.07694C10.2144 2.5175 11.2767 2.34967 12.2832 2.57344C13.2896 2.79722 14.1562 3.44057 14.7153 4.30771C15.8336 6.12589 15.2744 8.50351 13.4853 9.65036C11.6402 10.8252 10.1306 12.4476 9.12414 14.4056C8.11773 16.3636 7.64248 18.5734 7.78226 20.7832C7.92204 22.993 8.67685 25.1189 9.93486 26.937C11.1649 28.7273 12.8702 30.1818 14.8551 31.0769C16.7841 31.972 17.6507 34.2657 16.7561 36.2237C16.3368 37.1468 15.554 37.9021 14.5755 38.2377C14.1562 38.4056 13.681 38.4895 13.2337 38.4895ZM11.6681 37.958C11.6681 37.958 11.6961 37.958 11.6681 37.958C11.6961 37.958 11.6681 37.958 11.6681 37.958Z" fill="#E2E2E2"/>
<path d="M19.9994 39.9998C19.0489 39.9998 18.1263 39.9439 17.1758 39.804C14.52 39.4404 12.004 38.5453 9.68362 37.1467C8.81699 36.6152 8.174 35.7481 7.9224 34.7411C7.67079 33.7341 7.83853 32.6711 8.36969 31.776C9.48793 29.9579 11.8642 29.3705 13.6813 30.4614C15.0791 31.3005 16.6167 31.86 18.2381 32.0837C19.8596 32.3075 21.481 32.2236 23.0745 31.804C25.1153 31.2446 27.2399 32.4753 27.7991 34.5453C28.0786 35.5523 27.9388 36.6432 27.4077 37.5103C26.9045 38.4054 26.0099 39.0488 25.0314 39.3285C23.41 39.776 21.7047 39.9998 19.9994 39.9998ZM25.0594 39.1047H25.0314C25.0314 39.1327 25.0594 39.1047 25.0594 39.1047ZM23.1863 32.0278C23.1584 32.0278 23.1584 32.0278 23.1863 32.0278C23.1584 32.0278 23.1584 32.0278 23.1863 32.0278ZM13.5695 30.6572C13.5975 30.6572 13.5975 30.6572 13.5695 30.6572C13.5975 30.6572 13.5975 30.6572 13.5695 30.6572Z" fill="#03A0E8"/>
<path d="M24.3039 39.3848C23.633 39.3848 22.962 39.2169 22.375 38.8813C21.4804 38.3778 20.8094 37.5106 20.5578 36.5036C19.9987 34.4617 21.2008 32.3358 23.2696 31.7484C25.534 31.133 27.5468 29.8743 29.0844 28.14C30.622 26.4058 31.6563 24.2519 32.0477 21.9582C32.4112 19.8603 34.396 18.4337 36.4648 18.7414C37.4991 18.9093 38.4217 19.4687 39.0087 20.3079C39.6238 21.147 39.8474 22.182 39.6797 23.2169C39.0647 26.9932 37.3873 30.4897 34.8433 33.3148C32.2993 36.168 29.0005 38.2099 25.3103 39.2169C25.0028 39.3568 24.6674 39.3848 24.3039 39.3848Z" fill="#E44233"/>
<path d="M36.0179 25.4265C35.8781 25.4265 35.7663 25.4265 35.6265 25.3986C33.5019 25.1748 31.9643 23.2727 32.16 21.1468C32.3836 18.9091 31.9643 16.6433 30.9858 14.6014C29.9794 12.5315 28.4139 10.7972 26.4849 9.5944C24.556 8.3916 22.3195 7.72027 20.0271 7.72027H19.9992C17.7347 7.72027 15.5542 8.33566 13.6252 9.51048C11.8081 10.6294 9.43182 10.0419 8.28563 8.22377C7.75447 7.35664 7.58673 6.2937 7.81038 5.28671C8.03403 4.27972 8.67701 3.41258 9.5716 2.88112C12.7027 1.00699 16.309 0 19.9992 0C20.0271 0 20.0271 0 20.0551 0C23.8012 0 27.4634 1.06294 30.6224 3.04895C33.7814 5.03496 36.3254 7.86013 37.9748 11.2447C39.5963 14.5734 40.2672 18.2657 39.9038 21.958C39.792 22.993 39.3167 23.9161 38.506 24.5874C37.7791 25.1189 36.9125 25.4265 36.0179 25.4265Z" fill="#FDCB42"/>
</svg>
